<?xml version="1.0" encoding="utf-8"?>
<!-- Generator: Adobe Illustrator 26.1.0, SVG Export Plug-In . SVG Version: 6.00 Build 0)  -->
<svg version="1.1" id="Layer_1" xmlns="http://www.w3.org/2000/svg" xmlns:xlink="http://www.w3.org/1999/xlink" x="0px" y="0px"
	 viewBox="0 0 1088 618" style="enable-background:new 0 0 1088 618;" xml:space="preserve">
<style type="text/css">
	.st0{fill:none;stroke:#FFFFFF;stroke-width:3;stroke-miterlimit:10;}
</style>
<g>
	<rect x="21.5" y="12.1" class="st0" width="1045" height="593.8"/>
	<line class="st0" x1="543.2" y1="12.1" x2="543.2" y2="605.9"/>
	<circle class="st0" cx="543.2" cy="307.4" r="69.2"/>
	<polyline class="st0" points="21.5,151.9 156.7,151.9 156.7,462.5 21.5,462.5 	"/>
	<polyline class="st0" points="21.5,217.8 78.8,217.8 78.8,393.8 21.5,393.8 	"/>
	<path class="st0" d="M156.7,238.2c25.3,12.7,41.8,37.9,43.1,65.8c1.3,30.2-15.6,58.7-43.1,72.6"/>
	<polyline class="st0" points="1066.5,461.1 931.3,461.1 931.3,150.5 1066.5,150.5 	"/>
	<polyline class="st0" points="1066.5,395.1 1009.2,395.1 1009.2,219.2 1066.5,219.2 	"/>
	<path class="st0" d="M931.3,374.8c-25.3-12.7-41.8-37.9-43.1-65.8c-1.3-30.2,15.6-58.7,43.1-72.6"/>
</g>
</svg>
