<?xml version="1.0" encoding="utf-8"?>
<!-- Generator: Adobe Illustrator 26.1.0, SVG Export Plug-In . SVG Version: 6.00 Build 0)  -->
<svg version="1.1" id="Layer_1" xmlns="http://www.w3.org/2000/svg" xmlns:xlink="http://www.w3.org/1999/xlink" x="0px" y="0px"
	 viewBox="0 0 500 500" style="enable-background:new 0 0 500 500;" xml:space="preserve">
<style type="text/css">
	.st0{fill:#FFFFFF;}
</style>
<g>
	<path class="st0" d="M439.3,149.6v-27.4l-7.2-2.1c-1.1-0.3-2.2-0.7-3.4-1c-1-0.3-2.1-0.6-3.2-0.9c0-6.8,0-13.5,0-20.1l0-15.4
		l-6.2-2.4c-0.4-0.2-1.4-0.6-2.6-0.8c-2.2-0.4-4.4-0.8-6.6-1.2c-4.7-0.8-9.1-1.6-13.5-2.6c-3.4-0.8-6.7-1.5-10.1-2.3
		c-12.3-2.8-25-5.6-37.2-9.1c-31.8-9-63.2-22.1-93.1-38.8c-0.8-0.5-3.3-1.9-6.6-1.9c-2.2,0-4.3,0.6-6.3,1.7
		c-25.9,14.7-53.7,26.6-85,36.5c-20.1,6.4-40.9,11.4-61.7,15.1c-3.3,0.6-6.5,1.2-9.8,1.8l-4.7,0.9l-8.2,1.5v16.4
		c0,6.8,0,13.8,0,20.8c-1.3,0.4-2.6,0.8-3.8,1.1c-6,1.4-9.5,6-9.5,12.3c0,6.9,0,14,0,20.8l0,7l0,11.4c0,11.4,0,23.3,0,34.9
		c0,6.3,3.1,11,9,13.3c1.2,0.5,2.4,1,3.8,1.7c0.2,0.1,0.4,0.2,0.6,0.3c-0.1,17.1-0.1,35.3,0,53.8c0,7.4,0.3,15.2,0.8,23.2
		c0.6,10.3,3,21.1,7.2,33c6.6,18.5,17.8,35.7,34.3,52.6c11.7,12,25.2,23.5,41.2,35.3c24.3,17.8,51.5,35.5,85.7,55.7
		c2.1,1.2,4.3,1.9,6.6,1.9c2.3,0,4.5-0.6,6.6-1.9c28.4-16.9,61.7-37.4,93.7-61.7c19.3-14.7,34.7-29.4,46.9-44.9
		c18.3-23.3,27.9-50.2,28.5-80c0.3-17.8,0.2-35.9,0.1-53.4c0-4.4,0-8.9-0.1-13.3c0.3-0.1,0.5-0.2,0.8-0.4c1.7-0.8,3.2-1.5,4.7-2.1
		c5.3-2.2,8.4-6.8,8.3-12.6C439.3,187.3,439.3,168.1,439.3,149.6z M427.2,209.5c-3.2,1.3-6.3,2.9-9.5,4.3c-1.5,0.7-2.2,1.5-2.2,3.3
		c0.1,23.5,0.4,47.1,0,70.6c-0.5,27.5-9.3,52.3-26.3,74c-13,16.5-28.4,30.5-45.1,43.1c-29.6,22.4-60.9,42.1-92.7,61.1
		c-1.1,0.7-1.9,0.7-3,0c-29.1-17.2-57.6-35.2-84.9-55.1c-14.2-10.4-27.7-21.6-40-34.2c-13.9-14.2-25.3-30.1-32-49
		c-3.5-9.8-6.1-19.8-6.7-30.3c-0.4-7.5-0.7-15.1-0.8-22.7c-0.1-19.3-0.1-38.6,0-57.9c0-1.8-0.5-2.6-2.2-3.3
		c-2.9-1.2-5.7-2.7-8.6-3.8c-1.9-0.8-2.6-1.8-2.6-3.9c0.1-15.5,0-30.9,0-46.3c0-9.3,0-18.6,0-27.9c0-1.4,0.2-2.1,1.8-2.5
		c3.3-0.8,6.5-1.9,9.8-2.8c1.3-0.3,1.8-0.9,1.8-2.3c-0.1-11.4,0-22.9,0-34.5c4.8-0.9,9.6-1.8,14.5-2.6c21.3-3.7,42.3-8.8,63-15.4
		c30.2-9.6,59.3-21.7,87-37.3c1.2-0.7,2-0.5,3.1,0.1c30.2,16.9,62,30.3,95.3,39.7c15.7,4.5,31.8,7.8,47.7,11.5
		c6.8,1.6,13.7,2.6,20.5,3.9c0.2,0,0.4,0.1,0.6,0.2c0,11.4,0,22.8,0,34.1c0,1.7,0.4,2.3,2.1,2.7c3.9,1,7.7,2.2,11.7,3.4v2.9
		c0,24.5,0,49.1,0,73.6C429.4,207.9,428.8,208.8,427.2,209.5z"/>
	<g>
		<path class="st0" d="M297.2,96.5L297.2,96.5C297.2,96.5,297.2,96.5,297.2,96.5L297.2,96.5L297.2,96.5
			C297.2,96.5,297.2,96.5,297.2,96.5z M268.1,84.7c-0.6,0-1.2,0-1.8-0.1v0h0v0h0C266.9,84.6,267.5,84.6,268.1,84.7z M266.2,73.6
			v10.9h0C266.2,80.9,266.2,77.3,266.2,73.6z M234.7,106.5h31.1v0L234.7,106.5L234.7,106.5z M260.8,84.7c-0.6,0-1.2,0-1.8,0
			c-4,0-8,0.1-12.1,0.1c4,0,8,0,12.1-0.1C259.6,84.7,260.2,84.7,260.8,84.7z M234.9,84.8L234.9,84.8c4,0,8,0,12-0.1
			C243,84.8,239,84.8,234.9,84.8z M234.9,84.9c0,1.5-0.1,3.1-0.1,4.6C234.8,88,234.9,86.4,234.9,84.9L234.9,84.9z M234.8,91.8
			c0,0.8,0,1.5,0,2.3c0,0.2,0,0.4,0,0.6c0-0.2,0-0.4,0-0.6C234.7,93.4,234.8,92.6,234.8,91.8z"/>
		<path class="st0" d="M398.2,94.7c-16.8-3.1-33.3-6.8-49.7-11.5c-33.8-9.7-66.4-22.4-97.2-39.5c-0.7-0.4-1.9-0.3-2.7,0.1
			c-2.6,1.3-5.1,2.8-7.7,4.1c-46.9,24.4-96.8,39.9-149,48.7V129c105.4-20.5,210.7-21.7,316.1-0.3V96.5
			C404.7,95.9,401.5,95.3,398.2,94.7z M361.8,114.4c-10.8-1.1-21.3-2.2-32.1-3.3c0-0.2,0-0.3,0-0.5c0-0.1,0-0.3,0-0.4
			c0-0.3-0.1-0.6-0.1-0.9c0-0.2,0-0.3,0-0.5c-10.6-0.5-21.3-1-32.3-1.5V96.5c0,0,0,0,0,0h0c-0.7-0.1-1.4-0.2-2-0.3
			c-0.4,0-0.8-0.1-1.2-0.1c-8.5,0-17,0-25.4,0.1c-0.3,0-0.6,0-1,0c-0.4,0-0.9,0-1.5-0.1c-0.2,0-0.3,0-0.5,0c0.1-2.1,0.2-4.1,0.4-6.2
			c0.1-1.8,0.2-3.6,0.3-5.3h0v0c-0.9,0-1.8,0-2.7,0.1c-0.9,0-1.8,0-2.7,0.1c0,0,0,0,0,0c-0.6,0-1.2,0-1.8,0c-4,0-8,0-12.1,0.1
			c0,0,0,0,0,0c-4,0-8,0-12,0.1c0,0,0,0,0,0.1c0,0,0,0,0,0c0,0,0,0-0.1,0c0,1.5-0.1,3.1-0.1,4.6c0,0.8,0,1.5,0,2.3
			c0,0.8,0,1.5,0,2.3c0,0.2,0,0.4,0,0.6c0,0.3,0,0.6-0.1,0.8c0,0.3,0,0.6-0.1,0.9h0.1c0,0,0,0,0,0v0.1c6.5-0.1,13-0.2,19.4-0.2
			c3.9,0,7.7,0,11.7,0v10.2h-31.1v-10h-0.1v-0.1c-3.2-0.1-6.5-0.2-9.7-0.2c-7.2,0-14.5,0.1-21.7,0.2c0,0,0,0,0,0h-0.1v11
			c-10.6,0.5-21.1,1-31.8,1.5c-0.1,0.8-0.2,1.4-0.3,2.1c-10.8,1.1-21.7,2.3-32.8,3.4v-6.5c8-0.8,16.1-1.6,24.2-2.4
			c2.7-0.3,5.5-0.5,8.2-0.8c-0.1-2.5-0.2-5-0.4-7.6c3.5-0.2,7-0.4,10.4-0.5c6.5-0.2,13-0.3,19.5-0.5c1,0,1.9,0.1,2.9,0.1v0h0
			c0-0.1,0-0.3-0.1-0.4c-0.1-0.3-0.1-0.6-0.2-0.9c0-0.2-0.1-0.5-0.2-0.7c0-0.1,0-0.1,0-0.2c0-0.2-0.1-0.4-0.1-0.6
			c0-0.2,0-0.5-0.1-0.7c-0.1-2.6,0-5.3,0-8c0.6-0.1,1-0.1,1.5-0.1c10,0,20,0,30,0c0.3,0,0.5,0.1,0.8,0.1v0h0.1
			c0-0.4-0.1-0.8-0.2-1.2c-0.1-0.8-0.2-1.5-0.3-2.3c0-0.1,0-0.1,0-0.1c0-0.4-0.1-0.8-0.1-1.3c-0.1-2,0-4.1,0-6.3h31.8
			c0,3.6,0,7.3,0,10.9h0v0c0.6,0,1.2,0,1.8,0.1c1.9,0.1,3.7,0.1,5.6,0.2c8,0,15.9,0,24.4,0c-0.3,4-0.6,7.8-0.9,11.7c0,0,0,0,0,0v0
			c1.4,0,2.7-0.1,4.1-0.1c1.8,0,3.5-0.1,5.3-0.1c6.8,0.1,13.6,0.3,20.4,0.4c0.9,0,1.8,0.1,2.9,0.2v7.9c10.7,1,21.2,2.1,31.9,3.1
			V114.4z M401.2,124.6c-0.8-0.1-1.5-0.3-2.3-0.5c-0.8-0.2-1.5-0.3-2.3-0.5v-17.3c-4.5-0.9-8.9-1.8-13.4-2.7
			c-21.3-4.3-42.2-10.1-62.7-17.1c-23.8-8.2-46.9-17.7-69.1-29.5c-1-0.5-1.7-0.5-2.7,0c-33.9,17.8-69.5,31.2-106.6,40.8
			c-12.7,3.3-25.6,5.9-38.6,8.8v16.9c-1.6,0.2-3.1,0.5-4.7,0.7v-21.8c8.1-1.6,16.4-3.2,24.5-5c30.2-6.7,59.6-15.8,88-28.1
			c12.5-5.4,24.7-11.6,37-17.6c1.2-0.6,2.1-0.6,3.3,0c36.5,19.4,75.1,33.5,115.3,43.4c10.6,2.6,21.4,4.5,32.1,6.7
			c0.7,0.1,1.4,0.3,2.1,0.5V124.6z"/>
		<path class="st0" d="M408.1,290c-0.3,20.2-6.1,39.1-16.5,56.5c-8.2,13.7-18.8,25.3-30.6,35.9c-24.5,22.3-52.3,40.2-80.1,57.9
			c-10.2,6.5-20.5,12.8-30.7,19.1c-26.5-16.2-52.8-32.4-77.8-50.4c-16.6-12-32.6-24.8-46.6-40c-16.3-17.6-27.8-37.8-31.7-61.7
			c-1.3-7.7-2-15.6-2.1-23.4c-0.2-26-0.1-51.9-0.1-77.9c0-1.6,0.3-2.4,2-2.7c14.3-2.9,28.6-6,43-8.7c9.6-1.8,19.2-3.1,28.9-4.2
			c9.3-1.1,18.6-1.9,27.9-2.7c5.9-0.5,11.9-0.9,17.9-1.2c-19.6,3-39.5,6.2-59.7,9.8c-16.7,2.9-33.2,5.9-49.5,9c0,0,0,0-0.1,0
			c-3.6,0.6-3.6,1-3.6,5.2c0,24.8,0,49.5,0,74.2c0,26.6,7.9,50.4,24.7,71.1c8.5,10.5,18.3,19.9,28.7,28.5
			c26.4,22,55.4,40.3,84.5,58.4c4,2.5,8.1,5,12.2,7.5c0.8,0.5,1.4,0.8,2.4,0.1c20.8-13.4,41.7-26.5,62.4-40
			c13.4-8.8,26.1-18.4,38.2-28.9c14.1-12.3,27.1-25.6,36.2-42.2c6.3-11.4,10.4-23.6,12-36.6c0.8-5.9,1.3-11.9,1.3-17.9
			c0.1-25.6,0-51.2,0.1-76.8c0-1.8-0.3-2.6-2.3-2.9c-12.3-2.3-24.6-4.9-37-7.1c-9.9-1.7-19.8-3-29.8-4.2c-7.2-0.9-14.5-1.5-21.7-2.2
			c-8.2-0.8-16.3-1.7-24.5-2.5c-6.7-0.6-13.4-0.9-20.1-1.4c-4.7-0.3-9.4-0.6-14-0.9c52.8-2,104.8,3,156.1,16c0,0.6,0.1,1.1,0.1,1.6
			C408.2,232.9,408.5,261.5,408.1,290z"/>
		<path class="st0" d="M321,265.7c-0.1,1.9-0.2,3.2-0.3,4.6c-0.1,1.4,0,2.9-0.2,4.3c-1.2,10.1-3.9,19.8-9.1,28.6
			c-10.9,18.5-26.7,30.7-47.9,34.7c-23.4,4.4-44.4-1.3-62.5-16.8c-14.6-12.6-23.5-28.6-26.3-47.8c-3.1-21.1,1-40.6,13.8-57.8
			c10.6-14.2,24.9-22.9,42.1-26.9c3.2-0.7,6.4-1.2,9.4-1.8c-5,3.1-10.3,5.8-15,9.4c-13.5,10.2-21.9,23.8-24.6,40.6
			c-3,18.7,1.1,36,12.6,51.2c10.3,13.6,23.8,22.5,40.8,25.1c16.2,2.4,30.9-1.6,44-11.4c11.8-8.8,19.2-20.5,22.3-34.8
			C320.3,266.5,320.5,266.4,321,265.7z"/>
		<path class="st0" d="M117.4,162.1c-1.2-1-2.8-1.6-4.4-2.5c0.4-0.3,0.8-0.6,1.2-0.9c3.8-2.9,5.5-8.2,4.1-12.8
			c-1.4-4.8-6.7-6.2-11.4-5.6c-2.8,0.3-5.5,0.7-8.2,1.2c-3,0.5-6,1-9.4,1.6c3.4,3.2,2.6,6.9,2.7,10.5c0,7.7,0,15.4,0,23.1
			c0,3.9,0.5,7.9-2.4,11.4c0.6,0.1,0.9,0.2,1.2,0.1c5.5-1.2,11.1-2.2,16.6-3.5c6.3-1.5,11-5,12.7-11.6
			C120.8,169.1,121,165,117.4,162.1z M101.3,146.8c1.8-0.1,3.6-0.3,5.4-0.3c0.5,0,1.2,0.4,1.6,0.8c2.7,2.6,1.6,8.8-1.9,10.2
			c-1.6,0.7-3.4,0.9-5.2,1.4V146.8z M110.9,172.8c-0.1,0.3-0.1,0.6-0.2,0.9c-0.1,0.3-0.1,0.5-0.2,0.8c-0.1,0.3-0.2,0.5-0.3,0.7
			c-0.1,0.2-0.2,0.4-0.3,0.5c0,0.1-0.1,0.1-0.1,0.2c-0.1,0.1-0.1,0.2-0.2,0.3c0,0,0,0,0,0c-0.1,0.1-0.1,0.2-0.2,0.3
			c-0.1,0.2-0.2,0.3-0.4,0.4c-0.1,0.1-0.3,0.3-0.4,0.4c-0.2,0.1-0.3,0.3-0.5,0.4c0,0,0,0,0,0c-0.1,0.1-0.3,0.2-0.5,0.3
			c-0.1,0.1-0.2,0.1-0.3,0.2s-0.2,0.1-0.3,0.2c-0.1,0.1-0.2,0.1-0.4,0.2c-0.4,0.1-0.7,0.3-1.1,0.4c-0.2,0-0.3,0.1-0.5,0.1
			c-0.2,0-0.5,0.1-0.7,0.1c-0.2,0-0.4,0.1-0.5,0.1c-0.2,0-0.4,0.1-0.6,0.1c-0.2,0-0.4,0-0.6,0.1c-0.2,0-0.4,0-0.6,0.1
			c-0.2,0-0.4,0-0.6,0h0v-15h0c2.6-0.6,5.4-1.4,7.8,0.4c0.2,0.1,0.4,0.3,0.6,0.5c0.5,0.4,0.8,0.9,1,1.4c0.1,0.2,0.2,0.3,0.2,0.5
			s0.1,0.4,0.2,0.5c0,0.2,0.1,0.4,0.1,0.5c0,0.1,0,0.1,0,0.2c0,0.1,0,0.3,0,0.4C111.3,170.3,111.2,171.6,110.9,172.8z"/>
		<path class="st0" d="M270.2,153.4c0.5-0.3,0.7-0.5,0.9-0.6c5-2.7,7.6-7.5,7-13.3c-0.5-4.9-4.1-9.2-9.5-10.2
			c-4.4-0.8-8.9-0.8-13.4-1c-2.5-0.1-4.9,0-7,0c0.7,2.3,1.9,4.6,1.9,6.9c0.2,9.8,0.1,19.7,0,29.6c0,1.9-1,3.8-1.6,5.6
			c-0.2,0.5-0.5,0.9-0.9,1.6h14.2c-4.4-5.4-1.9-11.4-2.7-17c2.6-0.8,3.7,0.1,4.4,2.4c1.5,4.6,3.3,9.1,5,13.5
			c0.2,0.6,0.9,1.3,1.5,1.4c3.4,0.1,6.8,0.1,10,0.1C276.9,166.3,273.5,159.8,270.2,153.4z M267.5,147c-1.8,3.2-5,2.6-8,2.5v-15.3
			c3.4-0.2,6.6-0.4,8.5,2.7C270,140.2,269.2,143.7,267.5,147z"/>
		<path class="st0" d="M410.5,188.7c-4-0.8-7.7-1.5-11.3-2.3c-0.4-0.1-0.8-0.9-0.9-1.5c-2.4-6.8-4.7-13.7-7-20.5
			c0-0.1-0.2-0.2-0.3-0.3c-1.5,1.1-2.3,2.4-2.1,4.3c0.2,1.6,0,3.1,0,4.7c0,3.9-0.5,7.9,2.6,11.2c-0.2,0.1-0.3,0.2-0.5,0.3
			c-4.6-0.8-9.2-1.5-14.5-2.4c3.4-2.6,3.1-5.8,3.1-9c0.1-7.6,0.2-15.3,0.3-22.9c0-4.1,0.6-8.3-3-12.2c5.4,0.9,10.1,1.6,15.3,2.4
			c-3.4,3-3.2,6.7-3.2,10.3c0,2.5,0,5,0,8c0.7-0.9,1.1-1.4,1.4-1.9c2-3.1,4.1-6.2,6.1-9.3c1.2-1.9,2.4-3.9-0.2-6.4
			c4.7,0.9,8.7,1.6,12.6,2.4c-3.4,3.8-6.8,7.6-10,11.4c-0.5,0.6-0.7,1.8-0.5,2.6c3.3,8.9,6.6,17.8,10,26.7
			C408.8,185.7,409.6,187,410.5,188.7z"/>
		<path class="st0" d="M157,176.9c-0.9-2-1.9-3.8-2.5-5.8c-2.1-7.8-4.1-15.6-6-23.5c-1.1-4.4-3.2-8.7-0.4-13.5
			c-5.3,0.7-10.2,1.4-15.5,2.1c1.9,2.2,1.9,4.3,1.3,6.6c-0.5,1.8-0.9,3.6-1.4,5.4c-3.3,11.1-5.2,22.6-9.5,33.6
			c3.7-0.6,7.5-1.2,11.6-1.9c-2.9-3.6-1.3-7-0.7-10.4c0-0.3,0.6-0.6,0.9-0.7c2.8-0.5,5.7-0.9,8.7-1.3c0.9,3.7,2.8,7.3-0.3,11.3
			C148.2,178.2,152.6,177.6,157,176.9z M135.2,163.9c1.2-5.8,2.4-11.3,3.6-16.9c0.2,0,0.5,0,0.7,0c0.8,4.5,1.7,9,2.5,13.7
			c0.1,0.7,0.2,1.3,0.4,2C140,163.1,137.8,163.5,135.2,163.9z"/>
		<path class="st0" d="M373.3,181.7c-0.9-2.2-1.9-4.2-2.5-6.3c-2.5-9.9-5-19.8-7.3-29.7c-0.7-3-2.2-6.2,0.6-9.4
			c-5-0.7-9.6-1.3-14.8-2c1.9,2.5,1.4,4.7,0.8,6.8c-1.6,5.7-3,11.5-4.8,17.2c-2,6.2-2.5,12.9-6.3,18.9c3.9,0.4,7.6,0.8,11.9,1.3
			c-3.5-3.8-1.5-7.3-0.7-10.9c3,0.3,5.9,0.6,8.8,1c0.4,0,0.8,0.7,0.9,1.2c0.6,3.4,2.6,6.8-0.5,10.1
			C364.3,180.4,368.8,181,373.3,181.7z M351.5,162.4c1.2-5.4,2.3-10.6,3.5-15.8c0.2,0,0.5,0,0.7,0c0.8,4.4,1.6,8.9,2.5,13.5
			c0.2,1.1,0.4,2.1,0.6,3.2C356.3,163,354,162.7,351.5,162.4z"/>
		<path class="st0" d="M331,132.4c-4.6-0.9-9.3-1.2-14-1.8c-1.7-0.2-3.4-0.3-4.6-0.4c0.7,2.5,1.8,4.8,1.9,7.1
			c0.1,9.2-0.1,18.5-0.1,27.7c0,3.3-0.1,6.4-2.2,9.1c0,0.1,0,0.3,0.1,0.5c4.5,0.4,9,0.8,13.1,1.2c-0.7-2.7-1.7-5.4-2-8.1
			c-0.3-2.8-0.1-5.7-0.1-8.4c2.9,0,5.6,0.1,8.2,0c4.2-0.1,7.3-2.1,8.5-6.2c0.8-2.9,1.3-6,1.2-9C340.9,138,337.2,133.6,331,132.4z
			 M330.1,152.4c-0.6,0.8-2.1,1.1-3.3,1.4c-1,0.2-2.1,0-3.2,0v-17c0.6,0,1.2,0.1,1.8,0.1c0.3,0,0.6,0.1,0.8,0.1
			c0.3,0,0.6,0.1,0.9,0.1c0.2,0,0.3,0.1,0.5,0.1c0.2,0,0.4,0.1,0.6,0.2c0.1,0,0.3,0.1,0.4,0.2c0.2,0.1,0.4,0.2,0.6,0.3
			c0.2,0.1,0.3,0.2,0.5,0.3c0.1,0.1,0.2,0.1,0.2,0.2c0.1,0.1,0.1,0.1,0.2,0.2c0.1,0.1,0.2,0.2,0.3,0.4c0.1,0.1,0.2,0.3,0.3,0.4
			c0.2,0.3,0.3,0.7,0.5,1c0.1,0.2,0.2,0.4,0.2,0.7c0.1,0.3,0.2,0.7,0.3,1c0.1,0.3,0.2,0.7,0.2,1
			C332.5,146.5,332.1,149.6,330.1,152.4z"/>
		<path class="st0" d="M303.3,172.6c-3.2,2.1-6.7,2.3-10.2,1.1c-1.4-0.4-2.7-0.9-3.9-1.7c-1.7-1-3.3-1.8-5.1,0.3v-11.8
			c1.3,1.5,2.4,3.4,4,4.6c1.7,1.3,3.8,2.2,5.9,2.7c2.1,0.6,4.3-0.8,5.2-2.6c1-2,0.7-4.7-1.1-6.3c-2.9-2.6-5.9-5-8.9-7.4
			c-4.8-3.9-6.5-9-5.4-14.9c1.5-8.1,9.7-11.5,17.1-7c1.4,0.8,2.6,1.9,4.6-0.2v11.6c-1-1.2-1.7-2.2-2.5-3.2c-1.6-2-3.5-3.3-6.1-3.5
			c-1.6-0.1-3.1,0.2-4,1.8c-0.9,1.7-1.3,3.6,0,5c1.8,2,4,3.6,6,5.4c2.4,2.1,5,4,7,6.5C310.5,159,309.1,168.8,303.3,172.6z"/>
		<path class="st0" d="M244,161.2c-0.7,3.2-1.4,6.3-2.2,9.5c-0.1,0.5-0.8,1.2-1.2,1.2c-7.5,0.1-15,0-22.6,0c3.1-3.4,2.5-7.8,2.5-12
			c0-7,0-14,0-21c0-3.5,0.5-7-2.8-10.3h23.7v9.1c-2.8-5.1-7.5-3.1-11.7-3.5v12.9c3.3-0.6,6.4-1.1,9.4-1.7v9.6
			c-2.4-3.5-5.9-2.9-9.4-2.9v14C235.2,166.6,240.2,165.8,244,161.2z"/>
		<path class="st0" d="M392.2,274.2c-0.1,0.1-0.1,0.2-0.2,0.3c-0.5-0.3-1.1-0.5-1.6-0.8c-5.5-3-11-5.9-16.5-9
			c-1.8-1-3.1-1.2-4.2,0.8c-0.1,0.3-0.4,0.5-0.8,0.9c-5-3.2-9.9-6.3-14.9-9.4c-0.2,1.6-0.5,3-0.8,5.1c-5.3-5.8-10.4-11.4-15.6-17.1
			c-5.1,4.8-10.3,9.6-15.8,14.8c0-3.1-1.1-5.6,1.6-8c6.4-5.7,12.4-11.9,18.6-18c7.6,7.7,15.2,15.5,22.7,23.1c2.6-1.1,4.9-2,7.4-3.1
			C379,260.6,385.6,267.4,392.2,274.2z"/>
		<path class="st0" d="M291.9,265.1c0,0.1-0.1,0.1-0.1,0.1c-5.6-4.2-11.2-8.4-16.9-12.6c-2.9-2.2-5.8-4.4-8.7-6.6
			c-0.9-0.7-1.6-0.7-2.4,0c-0.4,0.3-0.8,0.6-1.2,0.9c-3.8,2.7-3.7,2.6-7.3-0.5c-4-3.4-8.1-6.6-12.2-10c-4.6,3.9-9.3,7.6-13.7,11.5
			c-1.5,1.3-2.7,1.6-4.3,0.5c-1.2-0.8-2.6-1.5-4.1-2.3c-4.4,4-9,8.2-13.5,12.3c-1.3-2.8-0.8-5.3,1.1-7.4c4-4.3,8-8.7,12.2-13.2
			c1.7,1,3.3,1.9,4.8,2.9c1,0.7,1.7,0.6,2.6-0.2c5.1-4.7,10.3-9.2,15.6-14c4.5,5,9.1,10.1,13.8,15.2c2.8-1.5,5.5-2.9,8.4-4.4
			C274.6,246.6,283.2,255.9,291.9,265.1z"/>
		<path class="st0" d="M303.2,225.7c-0.6,1.7,1.1,4.1,1.8,6.1c0.9,2.7,1.8,5.3,3,8.6c-4.8-3.4-9-6.5-13.4-9.6
			c-4.3,3.1-8.6,6.1-13.2,9.4c1.6-4.4,2.8-8.4,4.6-12.3c1-2.2,0.4-3.2-1.5-4.4c-3.7-2.4-7.2-5-10.8-7.5c0-0.2,0-0.5,0.1-0.7
			c3.6,0,7.2,0,10.8,0c5.4-0.1,5.4-0.1,7.1-5.2c1-3,2-6,3.1-9.5c1.4,4.3,2.8,8.2,3.8,12.1c0.6,2.1,1.5,2.8,3.6,2.8
			c4.5-0.1,9,0,13.7,0.5c-2.5,1.9-5.1,3.7-7.6,5.6C306.5,222.9,303.8,224,303.2,225.7z"/>
		<path class="st0" d="M215.1,161.4c-0.4,2.6-0.7,5.3-1.2,7.9c-0.6,3.5-0.7,3.4-4.3,3.5c-5.9,0.3-11.8,0.8-17.7,1.1
			c-0.6,0-1.1,0-1.7,0c0-0.2-0.1-0.4-0.1-0.4c2.2-2.9,2.2-6.3,2.2-9.8c-0.1-8.1,0-16.3,0-24.4c0-3.2,0-6.3-3-9
			c5.2-0.3,9.9-0.6,15.1-0.9c-2.9,3.3-2.8,6.8-2.8,10.4c0.1,8.3,0,16.6,0,24.9v2.5c5.5,0.2,10.2-0.7,13-6.1
			C214.8,161.1,214.9,161.2,215.1,161.4z"/>
		<path class="st0" d="M186.3,163.4c-0.3,1.7-0.5,3.5-0.8,5.2c-0.2,1.8-0.5,3.5-0.7,5.4c-7.8,0.8-15.6,1.6-24,2.5
			c3.5-4,2.6-8.5,2.6-12.8c0.1-6.7,0-13.4,0-20.2c0-3.7,0.4-7.5-3-10.7c5.1-0.6,9.8-1.1,14.9-1.6c-3.6,4.9-2.5,10.2-2.6,15.3
			c-0.1,7.4,0,14.9,0,22.3c5.4,0.2,10.1-0.7,13-5.8C186,163.2,186.2,163.3,186.3,163.4z"/>
		<path class="st0" d="M296.6,407.6c-1.7-0.7-3.3-1.4-5-2.1c-7.2-3-14.4-6-21.6-9.1c-1.2-0.5-2.2-0.6-3.1,0.3c-1,1.1-2,0.7-3,0.2
			c-4.2-2-8.4-3.9-12.5-5.9c-1-0.5-1.8-0.5-2.9,0.3c-2.3,1.7-4.8,3.1-7.1,4.8c-1.1,0.8-2,1-3,0c-3.3-3.3-6.4-2.9-10.4-0.8
			c-8.6,4.6-17.6,8.5-26.7,12.4c3.4-2.4,6.8-4.8,10.1-7.1c6.9-4.8,13.9-9.5,20.7-14.3c1.3-0.9,2.3-1,3.5,0.1
			c0.8,0.7,1.7,1.3,2.6,1.9c3.1,2.2,3,2.1,6-0.3c1.5-1.3,3.1-2.5,4.7-3.7c4,2,7.8,4.1,11.7,5.9c0.7,0.3,1.9,0.3,2.6,0
			c2.4-1.1,4.3-1.2,6.7,0.4c8.6,5.6,17.3,11,26,16.4C296.3,406.9,296.5,407.1,296.6,407.6z"/>
		<path class="st0" d="M166.8,266.4c-6.6-5.4-13-10.6-19.5-15.9c-4.6,3.6-9.2,7.2-13.8,10.8c-0.8,0.6-1.4,1.8-2.6,0.5
			c-0.1-0.2-1.1,0.3-1.6,0.6c-6.8,4.8-13.5,9.5-20.2,14.3c-0.2,0.1-0.4,0.2-0.5,0.3c-0.1-0.1-0.2-0.2-0.2-0.2
			c7.2-7.1,14.4-14.2,21.7-21.4c0.5,0.3,1.2,0.7,1.7,1c5-5.4,9.8-10.7,14.9-16.2c3.8,3.7,7.6,7.3,11.4,11c2,1.9,3.6,4.1,5.7,5.8
			C166.8,259.4,167.1,262.5,166.8,266.4z"/>
		<path class="st0" d="M391.4,291.7c-0.1,0.2-0.2,0.3-0.2,0.5c-3.1-0.5-6.3-1.1-9.4-1.6c-0.5-0.1-1.1-0.4-1.5-0.2
			c-4.1,1.8-7.9-0.5-11.7-1.2c-2.6-0.4-4.6-0.8-6.3,1.7c-0.3,0.4-1.4,0.6-2,0.5c-3.4-0.5-6.8-1.5-10.3-1.8c-2.4-0.2-4.8,0.1-7.1,0.6
			c-4.8,1.1-9.6,2.4-14.6,3.2c6.2-5.1,12.4-10.1,18.9-15.4c1,1.1,1.8,2.2,2.8,3.2c0.9,1,1.9,1.9,2.8,2.9c0.2-0.1,0.4-0.1,0.5-0.2
			c2.8-3.2,2.8-3.2,6.8-1.5c1.3,0.6,2.3,0.8,3.3-0.5c0.3-0.3,1.4-0.3,1.9-0.1c3.5,1.4,6.9,2.9,10.3,4.5c1.3,0.6,2.3,0.5,3.5-0.3
			c0.6-0.5,2-0.7,2.6-0.3C384.9,287.5,388.1,289.6,391.4,291.7z"/>
		<path class="st0" d="M256.2,271.8c-1.2,1.7-2.5,2.5-4.6,2.2c-1.3-0.2-2.6,0-3.8,0c0-0.1,0-0.1,0-0.1c-2.4,0.1-4.8,0.3-7.2,0.4
			c-0.6,0-1.4-0.4-1.8-0.8c-2-2.4-4-4.8-6-7.3c-0.3-0.4-0.4-1.4-0.1-1.8c1.7-2.2,3.3-4.6,5.4-6.3c1.3-1,3.4-1.4,5.1-1.5
			c2.4-0.2,4.9,0,7.2,0.3c2.8,0.3,4.5,2.4,5.9,4.5C259.9,266.7,259.8,266.7,256.2,271.8z"/>
		<path class="st0" d="M274.4,290.4c-1.7,1.5-3.1,3.3-4.6,5c-3-1.6-6-3.1-8.9-4.7c-0.6-0.3-1.1-1.1-1.2-1.7c-1-3.7-2-7.4-2.8-11.1
			c-0.1-0.6,0-1.5,0.4-1.9c1.8-2.2,3.7-4.3,5.8-6.8c3,1.9,6.1,3.7,9.2,5.6c0.5,0.3,1,0.8,1.1,1.2c0.9,3.4,1.8,6.8,2.6,10.3
			C276.3,287.9,275.7,289.3,274.4,290.4z"/>
		<path class="st0" d="M386.6,323.8c-0.9,3.8-0.9,3.8-4.4,3.8c-26.1,0-52.2,0-78.3,0h-3.4c2.2-2.1,3.8-3.9,7-3.9
			c25.6,0.2,51.2,0.1,76.8,0.1H386.6z"/>
		<path class="st0" d="M197,327.6h-2.9c-25.2,0-50.5,0-75.7,0c-3.6,0-3.6,0-4.6-3.8h3.4c24.1,0,48.2,0.1,72.3-0.1
			C192.8,323.7,194.6,325.3,197,327.6z"/>
		<path class="st0" d="M236.8,278.2c-1.2,3.3-2.2,6.6-3.4,9.8c-0.3,0.8-1,1.5-1.7,1.9c-1.2,0.7-2.7,1-3.9,1.8
			c-1.6,1-2.7,0.6-3.8-0.7c-1.1-1.3-2.1-2.7-3.4-3.8c-3.4-2.9-2.1-6.4-1.7-9.8c0.4-2.7,1.7-4.5,4.1-5.7c1.8-0.9,3.4-2.1,5.1-3.1
			c0.4-0.2,0.7-0.4,1.2-0.7c0.4,0.3,0.8,0.6,1.1,0.9c2,2.3,3.8,4.6,5.9,6.8C237.1,276.5,237.2,277.2,236.8,278.2z"/>
		<path class="st0" d="M390.6,310.9c-0.5,3.9-0.5,3.9-4,3.9h-74.4c1.3-3.5,1.9-3.9,5.3-3.9H390.6z"/>
		<path class="st0" d="M184.7,314.8h-71.3c-3.5,0-3.5,0-4.1-3.9h2.4c22.4,0,44.7,0.1,67.1-0.1C181.9,310.8,183.6,311.8,184.7,314.8z
			"/>
		<path class="st0" d="M164.1,291.7l-14.4-3.2c-1.2-0.3-2.3-0.6-3.5-0.8c-0.4-0.1-1-0.2-1.1,0c-1.8,2.2-3.9,1.2-5.9,0.7
			c-1.7-0.4-3.4-0.5-4.8,0.8c-2.4,2.2-5.4,1.1-8.1,1.6c-4.1,0.6-8.3,0.9-12.5,1.2c-0.1-0.1-0.1-0.2-0.2-0.3
			c5.1-2.7,10.2-5.5,15.4-8.1c0.7-0.4,1.9,0.3,3.2,0.5c1.8-1,4-2.2,6.2-3.3c2.6-1.4,2.6-1.3,4.7,0.6c3-2.6,3-2.6,6.4-0.3
			c4.7,3.3,9.3,6.5,14,9.8C163.7,290.9,164,291.2,164.1,291.7z"/>
		<path class="st0" d="M253.9,408.4c-0.1,0.1-0.2,0.2-0.2,0.3c1.9,1.7,3.8,3.5,5.7,5.2c-0.1,0.2-0.3,0.3-0.4,0.5
			c-3.8-2-7.6-3.9-11.4-6c-1.1-0.6-2-0.6-3.1,0c-8.2,3.8-16.5,7.6-24.8,11.3c-0.1,0-0.2,0-0.5-0.1c8.3-5.7,16.4-11.3,24.6-17
			c1.8-1.2,3.5-3.1,5.4-3.2c1.7-0.1,3.5,1.9,5.2,3c9,5.7,18,11.5,27,17.2c-0.1,0.2-0.1,0.3-0.2,0.4
			C272.1,416.2,263,412.3,253.9,408.4z"/>
		<path class="st0" d="M392.7,302.8c0.1,1.6-0.5,2.2-2.2,2.1c-6.5-0.1-13,0-19.5,0h-52.5c1.2-3.5,1.2-3.5,4.4-3.5
			c22.4,0,44.9,0,67.3,0h2.7C392.8,302,392.7,302.4,392.7,302.8z"/>
		<path class="st0" d="M178.4,304.8h-70.6c-0.2-1.1-0.3-2.1-0.6-3.4h2.4c21.4,0,42.9,0,64.3,0C177.3,301.5,177.3,301.5,178.4,304.8z
			"/>
		<path class="st0" d="M269.1,307.1c-5.5,0.8-10.7,0.1-15.9-0.6c-0.6-0.1-1.3-0.2-1.9-0.3c-3.4-0.7-3.5-0.8-3.2-4.3
			c0-0.6,0.5-1.3,0.9-1.7c2.7-2.1,5.4-4.2,8.2-6.1c0.5-0.3,1.5-0.4,2-0.2c3,1.5,5.9,3.1,8.8,4.7c0.5,0.3,0.9,1.1,0.9,1.6
			C269.1,302.4,269.1,304.6,269.1,307.1z"/>
		<path class="st0" d="M218.6,353.2v14.7c-1.9,0.6-3.1,0-4.2-1.6c-1.7-2.5-3.7-4.9-5.8-7.6v9.2h-3.4v-14.7c2-0.7,3.3,0.1,4.5,1.7
			c1.7,2.4,3.5,4.6,5.6,7.3v-9H218.6z"/>
		<path class="st0" d="M174.5,352.8c-4.6,0-8,3.4-8,7.9c0,4.5,3.4,7.7,8.1,7.7c4.6,0,8.3-3.6,8.2-8
			C182.7,356.1,179.1,352.8,174.5,352.8z M174.6,365.4c-2.6,0-4.7-2.2-4.7-4.8c0-0.9,0.3-1.8,0.8-2.6c0.1-0.1,0.1-0.2,0.2-0.3
			c0.1-0.1,0.1-0.2,0.2-0.3c0,0,0,0,0-0.1c0.1-0.1,0.2-0.2,0.2-0.3c0.1-0.1,0.2-0.2,0.3-0.2c0.3-0.2,0.6-0.5,0.9-0.6
			c0.1-0.1,0.2-0.1,0.3-0.1c0,0,0,0,0,0c0.1,0,0.2-0.1,0.3-0.1c0.1,0,0.2-0.1,0.4-0.1c0.1,0,0.2,0,0.4-0.1c0.1,0,0.3,0,0.5,0
			c0,0,0.1,0,0.1,0c0.2,0,0.3,0,0.5,0c0.3,0,0.5,0.1,0.8,0.2c0.2,0.1,0.4,0.2,0.6,0.2c0.2,0.1,0.3,0.2,0.5,0.3c0,0,0.1,0,0.1,0.1
			c0.2,0.1,0.3,0.2,0.4,0.3l0,0c0.1,0.1,0.2,0.2,0.4,0.3c0.1,0.1,0.2,0.2,0.3,0.4c0.2,0.3,0.4,0.6,0.6,1c0,0.1,0,0.1,0.1,0.2
			c0.2,0.6,0.4,1.2,0.4,1.8C179.3,363.3,177.3,365.4,174.6,365.4z"/>
		<path class="st0" d="M267.1,353.5c-2.7-0.6-5.5-0.5-8.4-0.7V368c2.3,0,4.4,0,6.5,0c3.7,0,6.9-2.6,7.3-5.9
			C273.1,357.9,271,354.3,267.1,353.5z M269.2,360.6c0,0.2,0,0.3,0,0.5c0,0.3-0.1,0.5-0.2,0.8c-0.1,0.2-0.2,0.5-0.3,0.7
			c0,0.1-0.1,0.1-0.1,0.2c-0.1,0.1-0.1,0.2-0.2,0.3c-0.2,0.3-0.3,0.5-0.5,0.7c-0.2,0.2-0.4,0.4-0.6,0.5c0,0,0,0-0.1,0.1
			c-0.2,0.1-0.4,0.2-0.6,0.3c-0.1,0.1-0.2,0.1-0.3,0.2c0,0-0.1,0-0.1,0.1c-0.2,0.1-0.4,0.1-0.5,0.2c-0.2,0.1-0.5,0.1-0.7,0.2
			c-0.2,0-0.5,0.1-0.8,0.1c-0.7,0-1.5,0-2.3,0v-9.2c1.5-0.2,3-0.3,4.2,0.2c0.1,0,0.2,0.1,0.3,0.1c0.6,0.3,1.2,0.7,1.8,1.4
			c0,0.1,0.1,0.1,0.2,0.2c0.1,0.1,0.1,0.2,0.2,0.3c0.1,0.1,0.1,0.2,0.2,0.3c0,0.1,0.1,0.2,0.1,0.2c0,0.1,0.1,0.2,0.1,0.3
			c0.1,0.3,0.2,0.6,0.2,0.9C269.2,360.3,269.2,360.4,269.2,360.6L269.2,360.6z"/>
		<path class="st0" d="M233.3,353.9c-2.9-0.8-6.1-0.8-9.2-1.2V368c2.4,0,4.7,0.1,6.9,0c3.6-0.1,6.5-2.8,7.1-6.5
			C238.6,358.4,236.5,354.7,233.3,353.9z M234.5,360.9c0,0.1,0,0.2,0,0.2c-0.1,0.6-0.3,1.2-0.6,1.7c-1.4,2.6-3.8,2.5-6.5,2.4v-9.1
			c0.4-0.1,0.8-0.1,1.2-0.2c0.3,0,0.6,0,0.9,0c0.2,0,0.3,0,0.5,0c0.1,0,0.2,0,0.2,0c0.3,0,0.5,0.1,0.8,0.1c0.1,0,0.3,0.1,0.4,0.1
			c0,0,0,0,0,0c0.2,0.1,0.3,0.1,0.5,0.2c0.1,0.1,0.2,0.1,0.4,0.2c0.3,0.2,0.5,0.4,0.8,0.6c0.1,0.1,0.2,0.1,0.2,0.2
			c0.1,0.1,0.1,0.2,0.2,0.2c0.2,0.2,0.3,0.4,0.5,0.7c0.1,0.1,0.1,0.2,0.2,0.3c0.2,0.4,0.3,0.7,0.3,1.1c0,0.1,0,0.2,0,0.4
			C234.5,360.4,234.5,360.7,234.5,360.9z"/>
		<path class="st0" d="M254.1,367.9h-11.9v-14.7h11.6v2.8h-8.1v3.1h7.1v2.9h-7.1v3.3h8.3C254,366.3,254,367,254.1,367.9z"/>
		<path class="st0" d="M309.9,353.9c-3.2-2-7.4-0.9-9.1,2.5c-2.2,4.3-0.7,10.1,3.2,11.6c0.6,0.2,1.2,0.4,1.9,0.4
			c4.3,0.3,7.2-3,7.2-8.2C313,357.8,312.3,355.4,309.9,353.9z M309.4,360.4c0,0.1,0,0.2,0,0.3c0,0.9-0.1,1.8-0.3,2.4
			c0,0.1-0.1,0.2-0.1,0.3c0,0.1-0.1,0.2-0.1,0.3c-0.1,0.1-0.1,0.2-0.2,0.4c-0.1,0.1-0.2,0.2-0.2,0.3c0,0-0.1,0.1-0.1,0.1
			c-0.1,0.1-0.2,0.2-0.2,0.2c-0.1,0.1-0.1,0.1-0.2,0.2c-0.1,0.1-0.2,0.1-0.3,0.2c-0.1,0-0.1,0.1-0.2,0.1c-0.2,0.1-0.4,0.1-0.6,0.1
			c-0.1,0-0.2,0-0.3,0c-0.1,0-0.3,0-0.4,0c-0.4,0-0.7-0.1-1-0.4c-0.1,0-0.1-0.1-0.2-0.1c-0.3-0.2-0.6-0.5-0.8-0.9
			c-0.1-0.1-0.2-0.2-0.2-0.4c-0.2-0.3-0.3-0.7-0.4-1c0-0.1,0-0.2-0.1-0.3c-0.1-0.3-0.1-0.7-0.2-1c0-0.1,0-0.3,0-0.4
			c0-0.2,0-0.4,0-0.7c0-0.3,0.1-0.7,0.2-1c0.5-2.2,1.6-3.4,3.2-3.2c2.1,0.3,2.6,1.9,2.8,3.7C309.4,359.9,309.4,360.2,309.4,360.4z"
			/>
		<path class="st0" d="M200.3,363.4c-0.3,3.3-3.2,5.2-7,5c-3.4-0.1-5.8-2.2-6.1-5.7c-0.2-2.6-0.1-5.1-0.1-7.7V353h3.5
			c0,2.9,0,5.8,0,8.7c0,2.5,1.3,3.7,3.5,3.7c1.8-0.1,3-0.9,3-2.9c0-3.1,0-6.1,0-9.4h3.4C200.4,356.6,200.6,360,200.3,363.4z"/>
		<path class="st0" d="M340.1,367.7c-2.9,1.6-6.3,0.9-8.8-1.8c0.6-0.6,1.2-1.2,1.9-1.8c0.9,0.4,1.8,1.2,2.7,1.2c1,0,2.2-0.4,3.1-0.9
			c0.3-0.2,0.5-1.7,0.2-1.8c-1-0.6-2.1-1-3.2-1.3c-0.3-0.1-0.8,0.4-1.2,0.3c-1.3-0.1-2.7-0.2-2.6-2c0.1-2.1,0.3-4.2,0.5-6.4h9.2v2.7
			h-6.3c-0.1,1-0.1,1.7-0.1,2.5c4.3-0.1,6.2,0.9,7,3.5C343.2,364.2,342.2,366.5,340.1,367.7z"/>
		<path class="st0" d="M289.2,365.4h6.4v2.5h-11c-0.6-1.6,0.1-2.7,1.3-3.7c1.7-1.3,3.3-2.7,4.9-4.1c1.1-0.9,2.1-2.1,0.8-3.5
			c-1.3-1.4-2.7-0.7-3.9,0.5c-0.3,0.3-0.6,0.6-0.9,0.9c-0.8-0.6-1.5-1.1-2.3-1.7c1.6-2.4,3.6-3.7,6.4-3.4c2,0.2,3.5,1,4.3,2.9
			c0.8,1.9,0.4,3.7-1,5.1C292.8,362.4,291.2,363.7,289.2,365.4z"/>
		<path class="st0" d="M321.6,365.4h6.2v2.4h-11c-0.6-1.6,0.1-2.7,1.4-3.6c1.6-1.1,3.1-2.3,4.5-3.6c1.2-1,2.5-2.2,1.1-4
			c-0.9-1.1-2.5-0.8-4.1,0.7c-0.2,0.2-0.4,0.4-0.6,0.8c-0.9-0.7-1.7-1.2-2.4-1.8c1.6-2.4,3.6-3.7,6.5-3.3c1.9,0.2,3.4,1,4.2,2.8
			c0.8,1.9,0.5,3.7-0.9,5.2C325.1,362.5,323.4,363.8,321.6,365.4z"/>
		<path class="st0" d="M154.5,355.9c0,1,0,1.6,0,2.3c0,0.3,0,0.7,0.1,1.2h7v3h-7v5.5h-3.1v-14.7h11.3v2.8H154.5z"/>
		<path class="st0" d="M244.9,304.4c-6.2-2.2-11.7-5.4-16.6-9.5c0.2-0.2,0.2-0.2,0.3-0.2c3.6-2.3,6.9-2.9,9.8,1.2
			c1,1.4,2.8,2.2,4.2,3.2C245.2,300.8,245.2,300.8,244.9,304.4z"/>
		<path class="st0" d="M280.6,291.1c-0.5-1.1-1.3-2.1-1.6-3.3c-1.2-4.4-2.3-8.9-3.4-13.4c-0.2-0.8,0-1.6,0-2.5c0.3,0,0.5,0,0.8,0
			C279.6,277.9,281.8,284,280.6,291.1z"/>
		<path class="st0" d="M215.9,280.1c-3-3.1-2.9-4.2,1.2-8.7C218.2,274.8,215.5,277.1,215.9,280.1z"/>
		<path d="M203.2,96.5L203.2,96.5L203.2,96.5C203.2,96.5,203.2,96.5,203.2,96.5z"/>
		<rect x="297.2" y="96.5" width="0" height="0"/>
		<path d="M203.2,96.5L203.2,96.5C203.2,96.5,203.2,96.5,203.2,96.5C203.2,96.5,203.2,96.5,203.2,96.5z"/>
		<path d="M234.6,96.5L234.6,96.5L234.6,96.5C234.6,96.4,234.6,96.5,234.6,96.5z"/>
		<path d="M234.9,84.9C234.9,84.9,234.9,84.9,234.9,84.9L234.9,84.9C234.9,84.9,234.9,84.9,234.9,84.9L234.9,84.9z"/>
		<path d="M266.3,84.6L266.3,84.6L266.3,84.6C266.2,84.6,266.3,84.6,266.3,84.6L266.3,84.6L266.3,84.6z"/>
		<path d="M297.2,96.5C297.2,96.5,297.2,96.5,297.2,96.5C297.2,96.5,297.2,96.5,297.2,96.5C297.2,96.5,297.2,96.5,297.2,96.5
			L297.2,96.5z"/>
		<path d="M235,84.9C235,84.9,235,84.9,235,84.9L235,84.9C234.9,84.9,234.9,84.9,235,84.9L235,84.9C235,84.9,235,84.9,235,84.9z"/>
		<path d="M247,84.8c-4,0-8,0-12,0.1v0C239,84.8,243,84.8,247,84.8z"/>
		<path d="M260.8,84.7c-0.6,0-1.2,0-1.8,0c-4,0-8,0-12.1,0.1c4,0,8,0,12.1-0.1C259.6,84.7,260.2,84.7,260.8,84.7z"/>
		<path d="M266.2,84.6L266.2,84.6l0-10.9C266.2,77.3,266.2,80.9,266.2,84.6z"/>
		<path d="M266.3,84.6L266.3,84.6C266.3,84.6,266.2,84.6,266.3,84.6C266.2,84.6,266.2,84.6,266.3,84.6L266.3,84.6L266.3,84.6z"/>
		<path d="M234.7,96.4L234.7,96.4L234.7,96.4C234.6,96.5,234.6,96.4,234.7,96.4C234.7,96.4,234.7,96.4,234.7,96.4z"/>
		<path d="M142.5,162.7L142.5,162.7c-0.1-0.7-0.3-1.4-0.4-2C142.2,161.4,142.4,162.1,142.5,162.7z"/>
		<path d="M358.8,163.3L358.8,163.3c-0.2-1.1-0.4-2.1-0.6-3.2C358.4,161.2,358.6,162.2,358.8,163.3z"/>
		<path d="M331.2,140.6c0.1,0.2,0.2,0.4,0.2,0.7C331.3,141.1,331.2,140.8,331.2,140.6c-0.1-0.4-0.3-0.7-0.5-1
			C330.9,139.9,331,140.2,331.2,140.6z"/>
		<path d="M264.2,365.3c-0.7,0-1.5,0-2.3,0v0C262.7,365.4,263.5,365.4,264.2,365.3z"/>
		<path d="M268.4,358.1c0.1,0.1,0.1,0.2,0.2,0.3C268.5,358.3,268.5,358.2,268.4,358.1c-0.1-0.1-0.1-0.2-0.2-0.2
			C268.3,357.9,268.3,358,268.4,358.1z"/>
		<path d="M269.2,360.1c0-0.3-0.1-0.6-0.2-0.9C269.1,359.5,269.2,359.8,269.2,360.1z"/>
		<path d="M232.3,356.7c0.3,0.2,0.5,0.4,0.8,0.6C232.8,357,232.6,356.8,232.3,356.7z"/>
		<path d="M233.5,357.7c0.2,0.2,0.3,0.4,0.4,0.7C233.9,358.2,233.7,357.9,233.5,357.7c-0.1-0.1-0.2-0.2-0.2-0.2
			C233.4,357.6,233.5,357.6,233.5,357.7z"/>
		<path d="M309.4,360.4v0.3c0,0.9-0.1,1.8-0.3,2.4c0.2-0.7,0.3-1.5,0.3-2.4C309.4,360.7,309.4,360.5,309.4,360.4z"/>
	</g>
</g>
</svg>
